<svg width="99" height="98" viewBox="0 0 99 98" fill="none" xmlns="http://www.w3.org/2000/svg">
<path d="M63.5104 48.9969C63.5104 50.2434 64.0056 51.4389 64.887 52.3203C65.7684 53.2018 66.9639 53.6969 68.2104 53.6969C69.4569 53.6969 70.6524 53.2018 71.5338 52.3203C72.4153 51.4389 72.9104 50.2434 72.9104 48.9969C72.9104 47.7504 72.4153 46.5549 71.5338 45.6735C70.6524 44.7921 69.4569 44.2969 68.2104 44.2969C66.9639 44.2969 65.7684 44.7921 64.887 45.6735C64.0056 46.5549 63.5104 47.7504 63.5104 48.9969Z" stroke="#181818" stroke-width="4" stroke-linecap="round" stroke-linejoin="round"/>
<path d="M44.7102 30.2C44.7102 31.4466 45.2054 32.642 46.0868 33.5235C46.9682 34.4049 48.1637 34.9001 49.4102 34.9001C50.6568 34.9001 51.8522 34.4049 52.7337 33.5235C53.6151 32.642 54.1103 31.4466 54.1103 30.2C54.1103 28.9535 53.6151 27.758 52.7337 26.8766C51.8522 25.9952 50.6568 25.5 49.4102 25.5C48.1637 25.5 46.9682 25.9952 46.0868 26.8766C45.2054 27.758 44.7102 28.9535 44.7102 30.2Z" stroke="#181818" stroke-width="4" stroke-linecap="round" stroke-linejoin="round"/>
<path d="M44.7102 67.8016C44.7102 69.0481 45.2054 70.2436 46.0868 71.125C46.9682 72.0064 48.1637 72.5016 49.4102 72.5016C50.6568 72.5016 51.8522 72.0064 52.7337 71.125C53.6151 70.2436 54.1103 69.0481 54.1103 67.8016C54.1103 66.5551 53.6151 65.3596 52.7337 64.4782C51.8522 63.5967 50.6568 63.1016 49.4102 63.1016C48.1637 63.1016 46.9682 63.5967 46.0868 64.4782C45.2054 65.3596 44.7102 66.5551 44.7102 67.8016Z" stroke="#181818" stroke-width="4" stroke-linecap="round" stroke-linejoin="round"/>
<path d="M49.4103 63.0986V34.8984" stroke="#181818" stroke-width="4" stroke-linecap="round" stroke-linejoin="round"/>
<path d="M63.5103 44.2985L54.1102 34.8984" stroke="#181818" stroke-width="4" stroke-linecap="round" stroke-linejoin="round"/>
<path d="M44.7102 25.5004L35.7802 16.5703" stroke="#181818" stroke-width="4" stroke-linecap="round" stroke-linejoin="round"/>
<path d="M56.2065 4.8197L93.5953 42.2038C95.3977 44.0063 96.4103 46.4509 96.4103 49C96.4103 51.5491 95.3977 53.9937 93.5953 55.7962L56.2065 93.185C54.404 94.9874 51.9593 96 49.4103 96C46.8612 96 44.4165 94.9874 42.614 93.185L5.22528 55.7962C3.42286 53.9937 2.41028 51.5491 2.41028 49C2.41028 46.4509 3.42286 44.0063 5.22528 42.2038L42.614 4.815C44.4165 3.01258 46.8612 2 49.4103 2C51.9593 2 54.404 3.01728 56.2065 4.8197Z" stroke="#181818" stroke-width="4" stroke-linecap="round" stroke-linejoin="round"/>
</svg>
