<svg width="65" height="94" viewBox="0 0 65 94" fill="none" xmlns="http://www.w3.org/2000/svg">
<path fill-rule="evenodd" clip-rule="evenodd" d="M17.8653 0H47.7744C57.2133 0 64.8653 7.65186 64.8653 17.0909C64.8653 23.5257 61.3091 29.1299 56.055 32.0455C61.3091 34.961 64.8653 40.5653 64.8653 47C64.8653 56.4389 57.2133 64.0909 47.7744 64.0909C42.6698 64.0909 38.0877 61.8529 34.9562 58.3048V76.9091C34.9562 86.348 27.3042 94 17.8653 94C8.42627 94 0.774414 86.348 0.774414 76.9091C0.774414 70.4744 4.33056 64.8703 9.58478 61.9545C4.33056 59.0388 0.774414 53.4347 0.774414 47C0.774414 40.5653 4.33056 34.961 9.58478 32.0455C4.33056 29.1299 0.774414 23.5257 0.774414 17.0909C0.774414 7.65186 8.42627 0 17.8653 0ZM60.5926 17.0909C60.5926 24.1702 54.8539 29.9091 47.7744 29.9091H34.9562V4.27273H47.7744C54.8539 4.27273 60.5926 10.0116 60.5926 17.0909ZM30.6835 34.1818V59.8182H17.8653C10.7861 59.8182 5.04714 54.0795 5.04714 47C5.04714 39.9205 10.7861 34.1818 17.8653 34.1818H30.6835ZM47.7744 34.1818C40.6949 34.1818 34.9562 39.9205 34.9562 47C34.9562 54.0795 40.6949 59.8182 47.7744 59.8182C54.8539 59.8182 60.5926 54.0795 60.5926 47C60.5926 39.9205 54.8539 34.1818 47.7744 34.1818ZM30.6835 64.0909H17.8653C10.7861 64.0909 5.04714 69.8296 5.04714 76.9091C5.04714 83.9886 10.7861 89.7273 17.8653 89.7273C24.9448 89.7273 30.6835 83.9886 30.6835 76.9091V64.0909ZM30.6835 29.9091H17.8653C10.7861 29.9091 5.04714 24.1702 5.04714 17.0909C5.04714 10.0116 10.7861 4.27273 17.8653 4.27273H30.6835V29.9091Z" fill="#F9F6EE"/>
</svg>
