<svg width="88" height="98" viewBox="0 0 88 98" fill="none" xmlns="http://www.w3.org/2000/svg">
<path d="M2 17.6667C2 21.8217 6.40158 25.8066 14.2364 28.7447C22.0713 31.6827 32.6976 33.3333 43.7778 33.3333C54.8579 33.3333 65.4843 31.6827 73.3191 28.7447C81.154 25.8066 85.5556 21.8217 85.5556 17.6667C85.5556 13.5116 81.154 9.52673 73.3191 6.58866C65.4843 3.65059 54.8579 2 43.7778 2C32.6976 2 22.0713 3.65059 14.2364 6.58866C6.40158 9.52673 2 13.5116 2 17.6667Z" stroke="#181818" stroke-width="4" stroke-linecap="round" stroke-linejoin="round"/>
<path d="M2 17.6641V48.9974C2 53.1525 6.40158 57.1373 14.2364 60.0754C22.0713 63.0135 32.6976 64.6641 43.7778 64.6641C54.8579 64.6641 65.4843 63.0135 73.3191 60.0754C81.154 57.1373 85.5556 53.1525 85.5556 48.9974V17.6641" stroke="#181818" stroke-width="4" stroke-linecap="round" stroke-linejoin="round"/>
<path d="M2 49V80.3333C2 84.4884 6.40158 88.4733 14.2364 91.4113C22.0713 94.3494 32.6976 96 43.7778 96C54.8579 96 65.4843 94.3494 73.3191 91.4113C81.154 88.4733 85.5556 84.4884 85.5556 80.3333V49" stroke="#181818" stroke-width="4" stroke-linecap="round" stroke-linejoin="round"/>
</svg>
