<svg width="44" height="44" viewBox="0 0 44 44" fill="none" xmlns="http://www.w3.org/2000/svg">
<path d="M5.5 12.8307C5.5 11.8583 5.88631 10.9256 6.57394 10.238C7.26158 9.55037 8.19421 9.16406 9.16667 9.16406H34.8333C35.8058 9.16406 36.7384 9.55037 37.4261 10.238C38.1137 10.9256 38.5 11.8583 38.5 12.8307V31.1641C38.5 32.1365 38.1137 33.0692 37.4261 33.7568C36.7384 34.4444 35.8058 34.8307 34.8333 34.8307H9.16667C8.19421 34.8307 7.26158 34.4444 6.57394 33.7568C5.88631 33.0692 5.5 32.1365 5.5 31.1641V12.8307Z" stroke="#2C3E50" stroke-width="2" stroke-linecap="round" stroke-linejoin="round"/>
<path d="M5.5 12.8359L22 23.8359L38.5 12.8359" stroke="#2C3E50" stroke-width="2" stroke-linecap="round" stroke-linejoin="round"/>
</svg>
