<svg width="65" height="94" viewBox="0 0 65 94" fill="none" xmlns="http://www.w3.org/2000/svg">
<path d="M55.3272 30.7339L52.9635 32.0455L55.3272 33.3571C60.1241 36.0189 63.3653 41.132 63.3653 47C63.3653 55.6105 56.3849 62.5909 47.7744 62.5909C43.118 62.5909 38.9397 60.5513 36.0809 57.3122L33.4562 54.3384V58.3048V76.9091C33.4562 85.5195 26.4758 92.5 17.8653 92.5C9.25471 92.5 2.27441 85.5196 2.27441 76.9091C2.27441 71.0411 5.51562 65.9281 10.3126 63.2661L12.6761 61.9545L10.3126 60.643C5.51562 57.981 2.27441 52.868 2.27441 47C2.27441 41.132 5.51564 36.0189 10.3126 33.3571L12.6763 32.0455L10.3126 30.7339C5.51563 28.0721 2.27441 22.9589 2.27441 17.0909C2.27441 8.48028 9.2547 1.5 17.8653 1.5H47.7744C56.3849 1.5 63.3653 8.48029 63.3653 17.0909C63.3653 22.9589 60.1241 28.0721 55.3272 30.7339ZM33.4562 29.9091V31.4091H34.9562H47.7744C55.6823 31.4091 62.0926 24.9986 62.0926 17.0909C62.0926 9.18323 55.6823 2.77273 47.7744 2.77273H34.9562H33.4562V4.27273V29.9091ZM32.1835 34.1818V32.6818H30.6835H17.8653C9.95764 32.6818 3.54714 39.0921 3.54714 47C3.54714 54.9079 9.95764 61.3182 17.8653 61.3182H30.6835H32.1835V59.8182V34.1818ZM32.1835 64.0909V62.5909H30.6835H17.8653C9.95764 62.5909 3.54714 69.0012 3.54714 76.9091C3.54714 84.817 9.95764 91.2273 17.8653 91.2273C25.7732 91.2273 32.1835 84.817 32.1835 76.9091V64.0909ZM30.6835 31.4091H32.1835V29.9091V4.27273V2.77273H30.6835H17.8653C9.95763 2.77273 3.54714 9.18321 3.54714 17.0909C3.54714 24.9986 9.95763 31.4091 17.8653 31.4091H30.6835ZM47.7744 32.6818C39.8665 32.6818 33.4562 39.0921 33.4562 47C33.4562 54.9079 39.8665 61.3182 47.7744 61.3182C55.6823 61.3182 62.0926 54.9079 62.0926 47C62.0926 39.0921 55.6823 32.6818 47.7744 32.6818Z" stroke="#181818" stroke-width="3"/>
</svg>
