<svg width="98" height="98" viewBox="0 0 98 98" fill="none" xmlns="http://www.w3.org/2000/svg">
<path d="M2 25.5C2 19.2674 4.47588 13.2901 8.88299 8.88299C13.2901 4.47588 19.2674 2 25.5 2H72.5C78.7326 2 84.7099 4.47588 89.117 8.88299C93.5241 13.2901 96 19.2674 96 25.5V72.5C96 78.7326 93.5241 84.7099 89.117 89.117C84.7099 93.5241 78.7326 96 72.5 96H25.5C19.2674 96 13.2901 93.5241 8.88299 89.117C4.47588 84.7099 2 78.7326 2 72.5V25.5Z" stroke="#181818" stroke-width="4" stroke-linecap="round" stroke-linejoin="round"/>
<path d="M31.375 49C31.375 53.6744 33.2319 58.1574 36.5372 61.4628C39.8426 64.7681 44.3256 66.625 49 66.625C53.6744 66.625 58.1574 64.7681 61.4628 61.4628C64.7681 58.1574 66.625 53.6744 66.625 49C66.625 44.3256 64.7681 39.8426 61.4628 36.5372C58.1574 33.2319 53.6744 31.375 49 31.375C44.3256 31.375 39.8426 33.2319 36.5372 36.5372C33.2319 39.8426 31.375 44.3256 31.375 49Z" stroke="#181818" stroke-width="4" stroke-linecap="round" stroke-linejoin="round"/>
<path d="M75.4375 22.5625V22.6213" stroke="#181818" stroke-width="4" stroke-linecap="round" stroke-linejoin="round"/>
</svg>
