<svg width="96" height="98" viewBox="0 0 96 98" fill="none" xmlns="http://www.w3.org/2000/svg">
<path d="M93.4103 2L82.0164 84.6061L47.8345 96L13.6527 84.6061L2.25879 2H93.4103Z" stroke="#181818" stroke-width="4" stroke-linecap="round" stroke-linejoin="round"/>
<path d="M22.1982 24.7891H39.2892V70.3648L27.8952 64.6678" stroke="#181818" stroke-width="4" stroke-linecap="round" stroke-linejoin="round"/>
<path d="M73.4709 24.7891H59.2285C58.473 24.7891 57.7485 25.0892 57.2143 25.6234C56.6801 26.1576 56.38 26.8821 56.38 27.6375V44.7285C56.38 45.4839 56.6801 46.2084 57.2143 46.7426C57.7485 47.2768 58.473 47.5769 59.2285 47.5769H67.3353C67.743 47.577 68.146 47.6646 68.5169 47.8338C68.8879 48.003 69.2182 48.2499 69.4855 48.5577C69.7529 48.8656 69.951 49.2272 70.0666 49.6182C70.1821 50.0092 70.2124 50.4205 70.1553 50.8242L67.7739 67.5163L56.38 70.3648" stroke="#181818" stroke-width="4" stroke-linecap="round" stroke-linejoin="round"/>
</svg>
