<svg width="99" height="98" viewBox="0 0 99 98" fill="none" xmlns="http://www.w3.org/2000/svg">
<path d="M2.5 13.75C2.5 10.6337 3.73794 7.64505 5.94149 5.44149C8.14505 3.23794 11.1337 2 14.25 2H84.75C87.8663 2 90.855 3.23794 93.0585 5.44149C95.2621 7.64505 96.5 10.6337 96.5 13.75V84.25C96.5 87.3663 95.2621 90.355 93.0585 92.5585C90.855 94.7621 87.8663 96 84.75 96H14.25C11.1337 96 8.14505 94.7621 5.94149 92.5585C3.73794 90.355 2.5 87.3663 2.5 84.25V13.75Z" stroke="#181818" stroke-width="4" stroke-linecap="round" stroke-linejoin="round"/>
<path d="M26 43.125V72.5" stroke="#181818" stroke-width="4" stroke-linecap="round" stroke-linejoin="round"/>
<path d="M26 25.5V25.5588" stroke="#181818" stroke-width="4" stroke-linecap="round" stroke-linejoin="round"/>
<path d="M49.5 72.5V43.125" stroke="#181818" stroke-width="4" stroke-linecap="round" stroke-linejoin="round"/>
<path d="M73 72.5V54.875C73 51.7587 71.7621 48.77 69.5585 46.5665C67.355 44.3629 64.3663 43.125 61.25 43.125C58.1337 43.125 55.145 44.3629 52.9415 46.5665C50.7379 48.77 49.5 51.7587 49.5 54.875" stroke="#181818" stroke-width="4" stroke-linecap="round" stroke-linejoin="round"/>
</svg>
