<svg width="94" height="94" viewBox="0 0 94 94" fill="none" xmlns="http://www.w3.org/2000/svg">
<path d="M11.75 27.4115C11.75 25.3339 12.5753 23.3415 14.0443 21.8725C15.5134 20.4034 17.5058 19.5781 19.5833 19.5781H74.4167C76.4942 19.5781 78.4866 20.4034 79.9557 21.8725C81.4247 23.3415 82.25 25.3339 82.25 27.4115V66.5781C82.25 68.6557 81.4247 70.6481 79.9557 72.1171C78.4866 73.5862 76.4942 74.4115 74.4167 74.4115H19.5833C17.5058 74.4115 15.5134 73.5862 14.0443 72.1171C12.5753 70.6481 11.75 68.6557 11.75 66.5781V27.4115Z" stroke="#181818" stroke-width="4" stroke-linecap="round" stroke-linejoin="round"/>
<path d="M11.75 27.4219L47 50.9219L82.25 27.4219" stroke="#181818" stroke-width="4" stroke-linecap="round" stroke-linejoin="round"/>
</svg>
