<svg width="110" height="98" viewBox="0 0 110 98" fill="none" xmlns="http://www.w3.org/2000/svg">
<path d="M24.7639 31.6094C11.0083 35.4316 2 41.7913 2 48.9968C2 60.6801 25.6679 70.1431 54.8655 70.1431C58.952 70.1431 62.9328 69.958 66.7497 69.6038" stroke="#181818" stroke-width="4" stroke-linecap="round" stroke-linejoin="round"/>
<path d="M84.9565 66.3852C98.7174 62.5684 107.731 56.2033 107.731 48.9978C107.731 37.3145 84.0631 27.8516 54.8654 27.8516C50.7789 27.8516 46.7982 28.0366 42.9707 28.3908" stroke="#181818" stroke-width="4" stroke-linecap="round" stroke-linejoin="round"/>
<path d="M24.7587 66.3769C21.1849 80.2012 22.1947 91.1867 28.4328 94.7816C38.546 100.623 58.582 84.8587 73.1782 59.5731C75.2241 56.0311 77.0532 52.4944 78.6551 49" stroke="#181818" stroke-width="4" stroke-linecap="round" stroke-linejoin="round"/>
<path d="M84.9672 31.6368C88.5462 17.8071 87.5418 6.8111 81.2983 3.21624C71.1852 -2.6254 51.1491 13.1391 36.553 38.4247C34.5071 41.9667 32.6779 45.5087 31.0708 48.9978" stroke="#181818" stroke-width="4" stroke-linecap="round" stroke-linejoin="round"/>
<path d="M54.8656 14.2342C44.689 4.232 34.6709 -0.388447 28.4328 3.21698C18.3196 9.05334 21.9515 34.2861 36.5529 59.5716C38.5936 63.1136 40.7452 66.4653 42.9602 69.5949" stroke="#181818" stroke-width="4" stroke-linecap="round" stroke-linejoin="round"/>
<path d="M54.8655 83.7539C65.0474 93.7614 75.0654 98.3871 81.2982 94.7817C91.4114 88.9453 87.7796 63.7126 73.1781 38.427C71.1956 34.9908 69.0546 31.6444 66.7708 28.3984" stroke="#181818" stroke-width="4" stroke-linecap="round" stroke-linejoin="round"/>
<path d="M52.2223 53.5738C52.8238 53.9264 53.489 54.1565 54.1798 54.251C54.8705 54.3454 55.5732 54.3023 56.2472 54.1241C56.9212 53.9459 57.5533 53.6361 58.1072 53.2126C58.661 52.7891 59.1256 52.2602 59.4742 51.6565C59.8228 51.0527 60.0485 50.3859 60.1384 49.6945C60.2283 49.0032 60.1805 48.3008 59.9978 47.628C59.8151 46.9552 59.5012 46.3251 59.074 45.7741C58.6469 45.2231 58.1149 44.762 57.5088 44.4174C56.2953 43.7275 54.8581 43.5455 53.5108 43.9113C52.1636 44.277 51.0157 45.1608 50.3177 46.3698C49.6197 47.5788 49.4282 49.0148 49.785 50.3644C50.1418 51.714 51.018 52.8677 52.2223 53.5738Z" stroke="#181818" stroke-width="4" stroke-linecap="round" stroke-linejoin="round"/>
</svg>
