<svg width="122" height="98" viewBox="0 0 122 98" fill="none" xmlns="http://www.w3.org/2000/svg">
<path d="M2.5 25.5C2.5 19.2674 4.97589 13.2901 9.38299 8.88299C13.7901 4.47588 19.7674 2 26 2H96.5C102.733 2 108.71 4.47588 113.117 8.88299C117.524 13.2901 120 19.2674 120 25.5V72.5C120 78.7326 117.524 84.7099 113.117 89.117C108.71 93.5241 102.733 96 96.5 96H26C19.7674 96 13.7901 93.5241 9.38299 89.117C4.97589 84.7099 2.5 78.7326 2.5 72.5V25.5Z" stroke="#181818" stroke-width="4" stroke-linecap="round" stroke-linejoin="round"/>
<path d="M49.5 31.375L78.875 49L49.5 66.625V31.375Z" stroke="#181818" stroke-width="4" stroke-linecap="round" stroke-linejoin="round"/>
</svg>
