<svg width="95" height="94" viewBox="0 0 95 94" fill="none" xmlns="http://www.w3.org/2000/svg">
<mask id="path-1-inside-1_577_480" fill="white">
<path d="M73.5792 0H21.9697C10.2823 0 0.774414 9.50793 0.774414 21.1953V72.8047C0.774414 84.4921 10.2823 94 21.9697 94H73.5792C85.2665 94 94.7744 84.4921 94.7744 72.8047V21.1953C94.7744 9.50793 85.2665 0 73.5792 0ZM91.2929 72.8047C91.2929 82.572 83.3465 90.5185 73.5792 90.5185H21.9697C12.2024 90.5185 4.2559 82.572 4.2559 72.8047V21.1953C4.2559 11.428 12.2024 3.48148 21.9697 3.48148H73.5792C83.3465 3.48148 91.2929 11.428 91.2929 21.1953V72.8047Z"/>
</mask>
<path d="M73.5792 0H21.9697C10.2823 0 0.774414 9.50793 0.774414 21.1953V72.8047C0.774414 84.4921 10.2823 94 21.9697 94H73.5792C85.2665 94 94.7744 84.4921 94.7744 72.8047V21.1953C94.7744 9.50793 85.2665 0 73.5792 0ZM91.2929 72.8047C91.2929 82.572 83.3465 90.5185 73.5792 90.5185H21.9697C12.2024 90.5185 4.2559 82.572 4.2559 72.8047V21.1953C4.2559 11.428 12.2024 3.48148 21.9697 3.48148H73.5792C83.3465 3.48148 91.2929 11.428 91.2929 21.1953V72.8047Z" fill="#F9F6EE"/>
<path d="M73.5792 -3.7037H21.9697V3.7037H73.5792V-3.7037ZM21.9697 -3.7037C8.23684 -3.7037 -2.92929 7.46243 -2.92929 21.1953H4.47812C4.47812 11.5534 12.3278 3.7037 21.9697 3.7037V-3.7037ZM-2.92929 21.1953V72.8047H4.47812V21.1953H-2.92929ZM-2.92929 72.8047C-2.92929 86.5376 8.23684 97.7037 21.9697 97.7037V90.2963C12.3278 90.2963 4.47812 82.4466 4.47812 72.8047H-2.92929ZM21.9697 97.7037H73.5792V90.2963H21.9697V97.7037ZM73.5792 97.7037C87.312 97.7037 98.4781 86.5376 98.4781 72.8047H91.0707C91.0707 82.4466 83.221 90.2963 73.5792 90.2963V97.7037ZM98.4781 72.8047V21.1953H91.0707V72.8047H98.4781ZM98.4781 21.1953C98.4781 7.46243 87.312 -3.7037 73.5792 -3.7037V3.7037C83.221 3.7037 91.0707 11.5534 91.0707 21.1953H98.4781ZM87.5892 72.8047C87.5892 80.5265 81.301 86.8148 73.5792 86.8148V94.2222C85.392 94.2222 94.9966 84.6175 94.9966 72.8047H87.5892ZM73.5792 86.8148H21.9697V94.2222H73.5792V86.8148ZM21.9697 86.8148C14.2479 86.8148 7.9596 80.5265 7.9596 72.8047H0.552192C0.552192 84.6175 10.1569 94.2222 21.9697 94.2222V86.8148ZM7.9596 72.8047V21.1953H0.552192V72.8047H7.9596ZM7.9596 21.1953C7.9596 13.4735 14.2479 7.18519 21.9697 7.18519V-0.222222C10.1569 -0.222222 0.552192 9.38246 0.552192 21.1953H7.9596ZM21.9697 7.18519H73.5792V-0.222222H21.9697V7.18519ZM73.5792 7.18519C81.301 7.18519 87.5892 13.4735 87.5892 21.1953H94.9966C94.9966 9.38246 85.392 -0.222222 73.5792 -0.222222V7.18519ZM87.5892 21.1953V72.8047H94.9966V21.1953H87.5892Z" fill="#F9F6EE" mask="url(#path-1-inside-1_577_480)"/>
<path d="M25.3538 52.0432H23.9654L23.5762 53.3759L19.3699 67.7795H17.8025L31.0563 22.7425H32.4358L30.7499 28.4424L24.901 48.2172L24.1979 50.5943H26.6768H38.5834H41.0875L40.3541 48.2001L34.2963 28.4252L32.5555 22.7425H34.0779L47.782 67.7795H46.0121L41.6079 53.3543L41.2076 52.0432H39.8368H25.3538Z" fill="#F9F6EE" stroke="#F9F6EE" stroke-width="3.7037"/>
<path d="M58.2104 39.2056C56.2914 40.903 55.4618 43.3064 55.4618 46.0935V51.6621V53.6109L57.408 53.5116L72.3784 52.7474L74.1359 52.6577V50.8979V45.5364C74.1359 42.6834 73.2258 40.2476 71.0306 38.7484L71.0282 38.7468C69.1583 37.474 66.9992 36.8609 64.6247 36.8609C62.1702 36.8609 59.9936 37.625 58.2104 39.2056ZM58.2104 39.2056L59.4373 40.5927M58.2104 39.2056C58.2098 39.2062 58.2092 39.2067 58.2086 39.2072L59.4373 40.5927M59.4373 40.5927C60.8526 39.3377 62.5811 38.7127 64.6247 38.7127C66.6666 38.7127 68.4544 39.235 69.9862 40.2777C71.5181 41.3239 72.284 43.075 72.284 45.5364V50.8979L59.1655 51.5676V51.6621H57.3136L57.2192 49.8127L57.3136 49.8079V46.0935C57.3136 43.6791 58.0204 41.8461 59.4373 40.5927ZM57.0478 38.6355L57.0489 38.6345C58.9802 36.9127 61.6069 35.969 65.1121 35.969C68.6311 35.969 71.1263 36.9047 72.8486 38.5534L72.8492 38.554C74.5618 40.1921 75.5151 42.5308 75.5151 45.815V53.5963L57.2173 54.5493L55.4618 54.6408V56.3987V60.0229C55.4618 62.3665 56.1653 64.4357 57.855 65.8716C59.4869 67.2584 61.7369 67.7915 64.2766 67.7915C67.0205 67.7915 69.8913 67.0358 72.8697 65.619L73.234 66.4148C70.3759 67.8916 67.443 68.6137 64.4158 68.6137C60.5911 68.6137 58.0678 67.8049 56.5195 66.5057C55.0335 65.2588 54.1521 63.3092 54.1521 60.2979V46.0256C54.1521 42.6792 55.1762 40.3015 57.0478 38.6355Z" fill="#F9F6EE" stroke="#F9F6EE" stroke-width="3.7037"/>
</svg>
