<svg width="98" height="98" viewBox="0 0 98 98" fill="none" xmlns="http://www.w3.org/2000/svg">
<path d="M2 17.6667C2 13.5116 3.65059 9.52673 6.58866 6.58866C9.52673 3.65059 13.5116 2 17.6667 2H80.3333C84.4884 2 88.4733 3.65059 91.4113 6.58866C94.3494 9.52673 96 13.5116 96 17.6667V80.3333C96 84.4884 94.3494 88.4733 91.4113 91.4113C88.4733 94.3494 84.4884 96 80.3333 96H17.6667C13.5116 96 9.52673 94.3494 6.58866 91.4113C3.65059 88.4733 2 84.4884 2 80.3333V17.6667Z" stroke="#F9F6EE" stroke-width="4" stroke-linecap="round" stroke-linejoin="round"/>
<path d="M49 22.8984V67.2873L38.4772 68.337C36.5042 68.5381 34.511 68.3231 32.6263 67.7059C30.7416 67.0886 29.0073 66.0828 27.5356 64.7535C26.0638 63.4242 24.8874 61.8009 24.0821 59.9885C23.2769 58.1761 22.8608 56.215 22.8608 54.2318C22.8608 52.2486 23.2769 50.2874 24.0821 48.475C24.8874 46.6627 26.0638 45.0394 27.5356 43.71C29.0073 42.3807 30.7416 41.3749 32.6263 40.7577C34.511 40.1404 36.5042 39.9254 38.4772 40.1265L49 41.1762" stroke="#F9F6EE" stroke-width="4" stroke-linecap="round" stroke-linejoin="round"/>
<path d="M69.889 22.8984V22.9507" stroke="#F9F6EE" stroke-width="4" stroke-linecap="round" stroke-linejoin="round"/>
<path d="M69.8888 38.5625V67.7338C69.8888 72.4599 68.0088 76.9981 64.6666 80.3403" stroke="#F9F6EE" stroke-width="4" stroke-linecap="round" stroke-linejoin="round"/>
</svg>
