<svg width="65" height="98" viewBox="0 0 65 98" fill="none" xmlns="http://www.w3.org/2000/svg">
<path d="M10.75 30.1875C7.88346 35.2039 5.01697 43.5645 4.06131 48.581C0.717113 65.5413 4.53902 92.5342 13.6164 95.6396C22.9327 98.7449 38.4597 81.068 46.1038 68.1687C49.448 62.6746 52.5535 53.1194 53.2701 46.1919" stroke="#F9F6EE" stroke-width="4" stroke-linecap="round" stroke-linejoin="round"/>
<path d="M34.3989 19.9072C32.4878 16.563 27.4714 11.7854 22.6938 12.0242C12.4221 12.2631 3.82263 21.5794 5.0169 28.2678C5.97232 32.3288 14.572 28.7455 23.8881 26.3567" stroke="#F9F6EE" stroke-width="4" stroke-linecap="round" stroke-linejoin="round"/>
<path d="M47.7759 36.6335C51.359 42.6053 55.42 49.7717 58.7642 49.7717C64.736 50.0105 64.2583 34.0059 57.5699 26.6007C54.9423 23.4953 48.4925 22.0619 43.4763 23.4953" stroke="#F9F6EE" stroke-width="4" stroke-linecap="round" stroke-linejoin="round"/>
<path d="M38.9373 21.5893C50.6424 25.6503 48.9702 32.3387 47.0591 36.6386C44.6703 42.6104 37.0263 49.2991 30.8156 47.388C24.6049 45.4769 20.7827 34.4887 24.8437 24.217C27.2325 18.2451 32.9653 19.6783 38.9373 21.5893Z" stroke="#F9F6EE" stroke-width="4" stroke-linecap="round" stroke-linejoin="round"/>
<path d="M53.7478 2C51.359 3.67222 48.4925 6.29986 45.8649 9.88291C43.2372 13.466 40.1319 18.7212 38.9374 21.3489" stroke="#F9F6EE" stroke-width="4" stroke-linecap="round" stroke-linejoin="round"/>
</svg>
