<svg width="98" height="98" viewBox="0 0 98 98" fill="none" xmlns="http://www.w3.org/2000/svg">
<path d="M26.2539 73.0984C29.9938 72.8416 32.462 71.8524 34.1031 70.3179L26.2539 73.0984ZM26.2539 73.0984H26.0094C25.5112 73.0984 25.2217 72.9501 25.0871 72.8367C24.971 72.7388 24.9038 72.6195 24.8988 72.4265L24.8987 72.424C24.8947 72.2767 24.9341 72.2074 25.012 72.1369C25.1181 72.0411 25.3914 71.878 25.9218 71.8447L26.2539 73.0984ZM50.3808 45.4621L50.3808 45.4621C50.2265 45.7354 50.0714 46.0103 49.9155 46.2865C48.5847 48.6453 47.1972 51.1043 45.7358 53.4916C42.9075 58.128 40.3685 61.8675 37.7681 65.2635L50.3808 45.4621ZM50.3808 45.4621C50.5099 45.2337 50.639 45.0048 50.7684 44.7756C51.9984 42.5965 53.2442 40.3892 54.5214 38.2725C57.3741 33.5636 60.2282 30.3066 63.5004 27.9126L63.5032 27.9105M50.3808 45.4621L63.5032 27.9105M63.5032 27.9105C65.8988 26.1514 68.5268 25.1768 71.6028 24.9135C71.774 24.9034 71.8647 24.8984 71.9494 24.8984C72.5494 24.8984 72.8352 25.0504 72.9406 25.1336C73.0133 25.1909 73.1021 25.2871 73.1259 25.559C73.1337 25.6652 73.121 25.7147 73.1179 25.7251C73.1169 25.7284 73.1162 25.7303 73.1159 25.7311L73.1153 25.7323L73.1142 25.7342C73.114 25.7344 73.1138 25.7348 73.1135 25.7352C73.0247 25.8303 72.6692 26.09 71.8273 26.1542L71.82 26.1548M63.5032 27.9105L71.82 26.1548M71.82 26.1548C67.202 26.5242 63.1871 28.8476 60.2533 32.7333C57.6156 36.2264 55.0195 40.0822 52.0845 44.8729C50.7589 47.0346 49.5196 49.2598 48.3413 51.3868C48.3409 51.3876 48.3404 51.3884 48.34 51.3892L48.2181 51.608C46.4986 54.6936 44.7819 57.7741 42.8526 60.5735L42.8517 60.5749M71.82 26.1548L42.8517 60.5749M42.8517 60.5749C40.8018 63.5549 38.122 66.555 34.1034 70.3177L42.8517 60.5749Z" stroke="#F9F6EE" stroke-width="4"/>
<path d="M80.17 2H17.83C9.08733 2 2 9.08733 2 17.83V80.17C2 88.9127 9.08733 96 17.83 96H80.17C88.9127 96 96 88.9127 96 80.17V17.83C96 9.08733 88.9127 2 80.17 2Z" stroke="#F9F6EE" stroke-width="4" stroke-miterlimit="10"/>
</svg>
