<svg width="95" height="94" viewBox="0 0 95 94" fill="none" xmlns="http://www.w3.org/2000/svg">
<mask id="path-1-inside-1_577_487" fill="white">
<path d="M73.5792 0H21.9697C10.2823 0 0.774414 9.50793 0.774414 21.1953V72.8047C0.774414 84.4921 10.2823 94 21.9697 94H73.5792C85.2665 94 94.7744 84.4921 94.7744 72.8047V21.1953C94.7744 9.50793 85.2665 0 73.5792 0ZM91.2929 72.8047C91.2929 82.572 83.3482 90.5185 73.5792 90.5185H21.9697C12.2006 90.5185 4.2559 82.572 4.2559 72.8047V21.1953C4.2559 11.428 12.2006 3.48148 21.9697 3.48148H73.5792C83.3482 3.48148 91.2929 11.428 91.2929 21.1953V72.8047Z"/>
</mask>
<path d="M73.5792 0H21.9697C10.2823 0 0.774414 9.50793 0.774414 21.1953V72.8047C0.774414 84.4921 10.2823 94 21.9697 94H73.5792C85.2665 94 94.7744 84.4921 94.7744 72.8047V21.1953C94.7744 9.50793 85.2665 0 73.5792 0ZM91.2929 72.8047C91.2929 82.572 83.3482 90.5185 73.5792 90.5185H21.9697C12.2006 90.5185 4.2559 82.572 4.2559 72.8047V21.1953C4.2559 11.428 12.2006 3.48148 21.9697 3.48148H73.5792C83.3482 3.48148 91.2929 11.428 91.2929 21.1953V72.8047Z" fill="#F9F6EE"/>
<path d="M73.5792 -3.7037H21.9697V3.7037H73.5792V-3.7037ZM21.9697 -3.7037C8.23684 -3.7037 -2.92929 7.46243 -2.92929 21.1953H4.47812C4.47812 11.5534 12.3278 3.7037 21.9697 3.7037V-3.7037ZM-2.92929 21.1953V72.8047H4.47812V21.1953H-2.92929ZM-2.92929 72.8047C-2.92929 86.5376 8.23684 97.7037 21.9697 97.7037V90.2963C12.3278 90.2963 4.47812 82.4466 4.47812 72.8047H-2.92929ZM21.9697 97.7037H73.5792V90.2963H21.9697V97.7037ZM73.5792 97.7037C87.312 97.7037 98.4781 86.5376 98.4781 72.8047H91.0707C91.0707 82.4466 83.221 90.2963 73.5792 90.2963V97.7037ZM98.4781 72.8047V21.1953H91.0707V72.8047H98.4781ZM98.4781 21.1953C98.4781 7.46243 87.312 -3.7037 73.5792 -3.7037V3.7037C83.221 3.7037 91.0707 11.5534 91.0707 21.1953H98.4781ZM87.5892 72.8047C87.5892 80.5268 81.3025 86.8148 73.5792 86.8148V94.2222C85.3939 94.2222 94.9966 84.6173 94.9966 72.8047H87.5892ZM73.5792 86.8148H21.9697V94.2222H73.5792V86.8148ZM21.9697 86.8148C14.2464 86.8148 7.9596 80.5268 7.9596 72.8047H0.552192C0.552192 84.6173 10.1549 94.2222 21.9697 94.2222V86.8148ZM7.9596 72.8047V21.1953H0.552192V72.8047H7.9596ZM7.9596 21.1953C7.9596 13.4732 14.2464 7.18519 21.9697 7.18519V-0.222222C10.1549 -0.222222 0.552192 9.3827 0.552192 21.1953H7.9596ZM21.9697 7.18519H73.5792V-0.222222H21.9697V7.18519ZM73.5792 7.18519C81.3025 7.18519 87.5892 13.4732 87.5892 21.1953H94.9966C94.9966 9.3827 85.3939 -0.222222 73.5792 -0.222222V7.18519ZM87.5892 21.1953V72.8047H94.9966V21.1953H87.5892Z" fill="#F9F6EE" mask="url(#path-1-inside-1_577_487)"/>
<path d="M29.1833 51.7647H27.3314V53.6166V67.7795H26.0218V22.7425H40.9507C45.096 22.7425 47.8593 24.0119 49.6223 26.2757C51.5096 28.6996 52.5391 31.9771 52.5391 36.277C52.5391 37.8692 52.493 39.2215 52.4056 40.3439C52.3241 41.3707 52.0674 42.7327 51.5951 44.4589C51.1479 46.0934 50.5689 47.3316 49.903 48.2375L49.9003 48.2412C49.2934 49.0711 48.2851 49.899 46.739 50.6721C45.3296 51.3768 43.5841 51.7647 41.4381 51.7647H29.1833ZM45.9608 49.3867L45.9656 49.3841C47.259 48.6577 48.3557 47.8021 49.1039 46.7615C49.8459 45.7295 50.3354 44.3868 50.6636 42.869C50.9719 41.4498 51.1614 40.2743 51.1917 39.4073C51.2173 38.6783 51.2294 37.6553 51.2294 36.3484C51.2294 32.6081 50.4547 29.4581 48.5875 27.2234C46.6671 24.9251 43.8635 23.9128 40.5346 23.9128H29.1833H27.3314V25.7647V48.7425V50.5943H29.1833H40.8131C42.7224 50.5943 44.4634 50.2219 45.9608 49.3867Z" fill="#F9F6EE" stroke="#F9F6EE" stroke-width="3.7037"/>
<path d="M73.8856 36.1097C74.7824 36.1097 75.7517 36.176 76.7957 36.3121L76.5343 37.2991C75.3172 37.0538 74.0746 36.9319 72.8081 36.9319C70.7294 36.9319 68.8112 37.476 67.1194 38.5953L67.1189 38.5956C65.2753 39.8161 64.2352 41.5925 64.2352 43.7971V67.7778H62.9256V36.5971H64.096V40.2082L67.0423 38.0494C68.7472 36.8001 70.9823 36.1097 73.8856 36.1097Z" fill="#F9F6EE" stroke="#F9F6EE" stroke-width="3.7037"/>
</svg>
