<svg width="104" height="98" viewBox="0 0 104 98" fill="none" xmlns="http://www.w3.org/2000/svg">
<path d="M76.8763 24.1202C72.4246 11.0416 62.8521 2 51.7699 2C36.4295 2 23.9924 16.5551 23.9924 37.9232C23.9924 48.74 32.741 64.0638 37.8839 71.1035" stroke="#F9F6EE" stroke-width="4" stroke-linecap="round" stroke-linejoin="round"/>
<path d="M11.4615 51.6484C2.30369 62.0283 -0.782081 74.7917 4.76456 84.3366C12.4347 97.5534 33.178 99.9922 51.7756 89.3136C61.1932 83.8997 67.6745 70.7216 71.2192 62.7804" stroke="#F9F6EE" stroke-width="4" stroke-linecap="round" stroke-linejoin="round"/>
<path d="M68.4377 95.9605C82.3237 95.9605 93.4501 93.5383 98.7811 84.3473C106.451 71.1305 97.5921 51.7587 78.989 41.0802C69.5769 35.6663 54.8946 34.2506 46.2124 35.1631" stroke="#F9F6EE" stroke-width="4" stroke-linecap="round" stroke-linejoin="round"/>
<path d="M43.4363 39.9488C46.0907 41.4751 49.4917 40.5682 51.0235 37.9248C51.7546 36.6545 51.9515 35.1459 51.571 33.7305C51.1904 32.3151 50.2636 31.1087 48.994 30.3763C47.718 29.6412 46.2027 29.4414 44.7798 29.8207C43.3568 30.2 42.142 31.1275 41.4013 32.4003C40.6706 33.6713 40.4746 35.1804 40.8562 36.5958C41.2378 38.0113 42.1658 39.2173 43.4363 39.9488Z" stroke="#F9F6EE" stroke-width="4" stroke-linecap="round" stroke-linejoin="round"/>
<path d="M32.4153 71.1238C32.4153 72.5905 32.9979 73.9971 34.035 75.0341C35.0721 76.0712 36.4787 76.6539 37.9453 76.6539C39.412 76.6539 40.8186 76.0712 41.8557 75.0341C42.8928 73.9971 43.4754 72.5905 43.4754 71.1238C43.4754 69.6571 42.8928 68.2506 41.8557 67.2135C40.8186 66.1764 39.412 65.5938 37.9453 65.5938C36.4787 65.5938 35.0721 66.1764 34.035 67.2135C32.9979 68.2506 32.4153 69.6571 32.4153 71.1238Z" stroke="#F9F6EE" stroke-width="4" stroke-linecap="round" stroke-linejoin="round"/>
<path d="M65.5952 62.8269C65.5952 64.2936 66.1778 65.7002 67.2149 66.7373C68.252 67.7744 69.6586 68.357 71.1253 68.357C72.5919 68.357 73.9985 67.7744 75.0356 66.7373C76.0727 65.7002 76.6553 64.2936 76.6553 62.8269C76.6553 61.3603 76.0727 59.9537 75.0356 58.9166C73.9985 57.8795 72.5919 57.2969 71.1253 57.2969C69.6586 57.2969 68.252 57.8795 67.2149 58.9166C66.1778 59.9537 65.5952 61.3603 65.5952 62.8269Z" stroke="#F9F6EE" stroke-width="4" stroke-linecap="round" stroke-linejoin="round"/>
</svg>
