<svg width="94" height="98" viewBox="0 0 94 98" fill="none" xmlns="http://www.w3.org/2000/svg">
<path d="M33.9692 85.5103C11.4163 92.8531 11.4163 72.3981 2.5 69.7757M65.4383 96V77.643C65.4383 72.3981 65.9628 70.3002 62.8159 67.1533C77.5015 65.5798 91.6626 59.8105 91.6626 35.6841C91.6562 29.4163 89.2109 23.397 84.8443 18.9006C86.8922 13.4562 86.7037 7.42288 84.3198 2.11703C84.3198 2.11703 78.5505 0.543577 65.9628 8.93535C55.3012 6.15866 44.1062 6.15866 33.4447 8.93535C20.857 0.543577 15.0877 2.11703 15.0877 2.11703C12.7038 7.42288 12.5152 13.4562 14.5632 18.9006C10.1966 23.397 7.75124 29.4163 7.74486 35.6841C7.74486 59.8105 21.906 65.5798 36.5916 67.1533C33.4447 70.3002 33.4447 73.4471 33.9692 77.643V96" stroke="#181818" stroke-width="4" stroke-linecap="round" stroke-linejoin="round"/>
</svg>
