<svg width="95" height="94" viewBox="0 0 95 94" fill="none" xmlns="http://www.w3.org/2000/svg">
<path d="M21.9697 0.00027H73.5792C85.2663 0.00027 94.7741 9.50807 94.7741 21.1953V72.8047C94.7741 84.4919 85.2663 93.9997 73.5792 93.9997H21.9697C10.2825 93.9997 0.774684 84.4919 0.774684 72.8047V21.1953C0.774684 9.50807 10.2825 0.00027 21.9697 0.00027ZM73.5792 90.5188C83.3466 90.5188 91.2932 82.5722 91.2932 72.8047V21.1953C91.2932 11.4278 83.3466 3.48121 73.5792 3.48121H21.9697C12.2022 3.48121 4.25563 11.4278 4.25563 21.1953V72.8047C4.25563 82.5722 12.2022 90.5188 21.9697 90.5188H73.5792Z" fill="#181818" stroke="#181818" stroke-width="0.00054"/>
<path d="M41.0898 20.8909L55.9207 69.6311H50.2813L45.4769 53.895L45.4776 53.8948H45.4767H30.9937V53.8941L30.9934 53.895L26.3979 69.6311H20.9674L35.3109 20.8909H41.0898ZM32.3167 48.7425L32.3169 48.7426L32.3176 48.7427H44.2233V48.7425V48.7422V48.7416L38.1658 28.9676L38.1656 28.9677L38.1653 28.9677L38.1652 28.9678L32.3164 48.7424L32.3167 48.7425Z" fill="#181818" stroke="#181818" stroke-width="0.00054"/>
<path d="M62.9174 21.0659C63.4971 20.4863 64.1707 20.1956 64.9365 20.1956C65.7041 20.1956 66.3655 20.4741 66.9225 21.0311C67.4795 21.588 67.7562 22.2651 67.7562 23.0536C67.7562 23.8421 67.4777 24.5157 66.9208 25.0727C66.3638 25.6279 65.7024 25.9064 64.9365 25.9064C64.1707 25.9064 63.4971 25.6175 62.9174 25.0361C62.3361 24.4565 62.0471 23.7951 62.0471 23.0519C62.0471 22.3087 62.3361 21.6472 62.9174 21.0659Z" fill="#181818" stroke="#181818" stroke-width="0.00054"/>
<path d="M62.3255 34.7425H67.3383V69.6264H62.3255V34.7425Z" fill="#181818" stroke="#181818" stroke-width="0.00054"/>
</svg>
