<svg width="98" height="98" viewBox="0 0 98 98" fill="none" xmlns="http://www.w3.org/2000/svg">
<path d="M2 49C2 55.1721 3.21569 61.2838 5.57766 66.9861C7.93963 72.6884 11.4016 77.8697 15.766 82.234C20.1303 86.5984 25.3116 90.0604 31.0139 92.4223C36.7162 94.7843 42.8279 96 49 96C55.1721 96 61.2838 94.7843 66.9861 92.4223C72.6884 90.0604 77.8697 86.5984 82.234 82.234C86.5984 77.8697 90.0604 72.6884 92.4223 66.9861C94.7843 61.2838 96 55.1721 96 49C96 42.8279 94.7843 36.7162 92.4223 31.0139C90.0604 25.3116 86.5984 20.1303 82.234 15.766C77.8697 11.4016 72.6884 7.93963 66.9861 5.57766C61.2838 3.21569 55.1721 2 49 2C42.8279 2 36.7162 3.21569 31.0139 5.57766C25.3116 7.93963 20.1303 11.4016 15.766 15.766C11.4016 20.1303 7.93963 25.3116 5.57766 31.0139C3.21569 36.7162 2 42.8279 2 49Z" stroke="#F9F6EE" stroke-width="4" stroke-linecap="round" stroke-linejoin="round"/>
<path d="M49 41.2859C61.8466 36.9723 69.8889 36.9723 69.8889 30.032C69.8889 22.8984 62.8545 22.8984 55.6061 22.8984C45.6316 22.8984 38.1012 25.4573 31.9129 32.0269C27.4844 36.7373 26.5496 44.8161 31.1139 49.2968C36.1951 54.2892 47.8563 58.6393 46.1747 67.538C44.958 73.9874 38.5033 77.0581 32.5082 73.8151C28.4244 71.6009 30.1373 64.6971 35.7773 60.6969C41.4173 56.6967 50.5144 55.5164 57.1884 59.4436C62.3062 62.4463 62.6509 68.4467 59.4549 70.8959" stroke="#F9F6EE" stroke-width="4" stroke-linecap="round" stroke-linejoin="round"/>
</svg>
